<svg width="300" height="620" viewBox="0 0 300 620" fill="none" xmlns="http://www.w3.org/2000/svg" role="img" aria-label="FamFrame album screen">
  <rect width="300" height="620" fill="#fbf9f8"/>
  <!-- status bar -->
  <text x="24" y="30" font-family="Inter, sans-serif" font-size="13" font-weight="600" fill="#1b1c1c">9:41</text>
  <rect x="248" y="21" width="18" height="10" rx="2" fill="#424842"/>
  <rect x="270" y="22" width="14" height="8" rx="2" fill="#424842"/>
  <!-- header -->
  <rect x="20" y="52" width="36" height="36" rx="12" fill="#cceace"/>
  <path d="M31 71l7-6 7 6v8a1.5 1.5 0 0 1-1.5 1.5H41v-5h-6v5h-2.5A1.5 1.5 0 0 1 31 79z" stroke="#4a654e" stroke-width="1.8" fill="none" stroke-linejoin="round"/>
  <text x="66" y="76" font-family="Plus Jakarta Sans, sans-serif" font-size="19" font-weight="700" fill="#4a654e">FamFrame</text>
  <circle cx="278" cy="70" r="16" fill="#c5e4f5"/>
  <!-- greeting -->
  <text x="20" y="120" font-family="Plus Jakarta Sans, sans-serif" font-size="17" font-weight="600" fill="#1b1c1c">Recent memories</text>
  <text x="20" y="140" font-family="Inter, sans-serif" font-size="12" fill="#737972">Baby Ava · 128 photos</text>
  <!-- photo grid -->
  <rect x="20" y="156" width="126" height="126" rx="16" fill="#8ba88e"/>
  <rect x="154" y="156" width="126" height="126" rx="16" fill="#c5e4f5"/>
  <rect x="20" y="290" width="126" height="126" rx="16" fill="#a4a09b"/>
  <rect x="154" y="290" width="126" height="126" rx="16" fill="#cceace"/>
  <rect x="20" y="424" width="126" height="126" rx="16" fill="#c8e7f8"/>
  <rect x="154" y="424" width="126" height="126" rx="16" fill="#8ba88e"/>
  <!-- heart on a tile -->
  <path d="M262 172c-1.6-1.5-4-1-5 1-1-2-3.4-2.5-5-1-1.7 1.6-1.4 3.8 0 5l5 4.6 5-4.6c1.4-1.2 1.7-3.4 0-5z" fill="#ffffff" opacity="0.9"/>
  <!-- FAB -->
  <circle cx="250" cy="512" r="26" fill="#4a654e"/>
  <path d="M250 501v22M239 512h22" stroke="#ffffff" stroke-width="2.6" stroke-linecap="round"/>
  <!-- bottom tab bar -->
  <rect x="0" y="566" width="300" height="54" fill="#ffffff"/>
  <rect x="0" y="566" width="300" height="1" fill="#e4e2e2"/>
  <circle cx="60" cy="592" r="4.5" fill="#4a654e"/>
  <circle cx="130" cy="592" r="4.5" fill="#c2c8c0"/>
  <circle cx="200" cy="592" r="4.5" fill="#c2c8c0"/>
  <circle cx="262" cy="592" r="4.5" fill="#c2c8c0"/>
</svg>
